# xmcd CD database file
#
# Track frame offsets:
#	150
#	13918
#	31550
#	50793
#	76160
#	92568
#	115533
#	131183
#
# Disc length: 2020 seconds
#
# Revision: 1
# Processed by: cddbd v1.5.2PL0 Copyright (c) Steve Scherf et al.
# Submitted via: CDex 1.79
#
DISCID=5a07e208
DTITLE=Barrelhouse - Got To Get Together
DYEAR=1981
DGENRE=Blues
TTITLE0=Got to get together
TTITLE1=Let Me Love You
TTITLE2=Play The Part
TTITLE3=It's Only A Fool
TTITLE4=Deep Down In Your Heart
TTITLE5=I Won't Resign, I Won't Give Up
TTITLE6=I Can't Believe
TTITLE7=Too Many People
EXTD=YEAR: 1981
EXTT0=
EXTT1=
EXTT2=
EXTT3=
EXTT4=
EXTT5=
EXTT6=
EXTT7=
PLAYORDER=
